%TF.GenerationSoftware,KiCad,Pcbnew,7.0.5*%
%TF.CreationDate,2023-10-01T13:44:02-07:00*%
%TF.ProjectId,Keithley_TF70,4b656974-686c-4657-995f-544637302e6b,rev?*%
%TF.SameCoordinates,Original*%
%TF.FileFunction,Legend,Bot*%
%TF.FilePolarity,Positive*%
%FSLAX46Y46*%
G04 Gerber Fmt 4.6, Leading zero omitted, Abs format (unit mm)*
G04 Created by KiCad (PCBNEW 7.0.5) date 2023-10-01 13:44:02*
%MOMM*%
%LPD*%
G01*
G04 APERTURE LIST*
%ADD10C,0.100000*%
%ADD11C,0.150000*%
G04 APERTURE END LIST*
D10*
X133450001Y-131363561D02*
X133450001Y-132011180D01*
X133450001Y-132011180D02*
X133488096Y-132087371D01*
X133488096Y-132087371D02*
X133526192Y-132125466D01*
X133526192Y-132125466D02*
X133602382Y-132163561D01*
X133602382Y-132163561D02*
X133716668Y-132163561D01*
X133716668Y-132163561D02*
X133792858Y-132125466D01*
X133450001Y-131858800D02*
X133526192Y-131896895D01*
X133526192Y-131896895D02*
X133678573Y-131896895D01*
X133678573Y-131896895D02*
X133754763Y-131858800D01*
X133754763Y-131858800D02*
X133792858Y-131820704D01*
X133792858Y-131820704D02*
X133830954Y-131744514D01*
X133830954Y-131744514D02*
X133830954Y-131515942D01*
X133830954Y-131515942D02*
X133792858Y-131439752D01*
X133792858Y-131439752D02*
X133754763Y-131401657D01*
X133754763Y-131401657D02*
X133678573Y-131363561D01*
X133678573Y-131363561D02*
X133526192Y-131363561D01*
X133526192Y-131363561D02*
X133450001Y-131401657D01*
X133069048Y-131896895D02*
X133069048Y-131363561D01*
X133069048Y-131096895D02*
X133107144Y-131134990D01*
X133107144Y-131134990D02*
X133069048Y-131173085D01*
X133069048Y-131173085D02*
X133030953Y-131134990D01*
X133030953Y-131134990D02*
X133069048Y-131096895D01*
X133069048Y-131096895D02*
X133069048Y-131173085D01*
X132802382Y-131363561D02*
X132497620Y-131363561D01*
X132688096Y-131096895D02*
X132688096Y-131782609D01*
X132688096Y-131782609D02*
X132650001Y-131858800D01*
X132650001Y-131858800D02*
X132573811Y-131896895D01*
X132573811Y-131896895D02*
X132497620Y-131896895D01*
X132230953Y-131896895D02*
X132230953Y-131096895D01*
X131888096Y-131896895D02*
X131888096Y-131477847D01*
X131888096Y-131477847D02*
X131926191Y-131401657D01*
X131926191Y-131401657D02*
X132002382Y-131363561D01*
X132002382Y-131363561D02*
X132116668Y-131363561D01*
X132116668Y-131363561D02*
X132192858Y-131401657D01*
X132192858Y-131401657D02*
X132230953Y-131439752D01*
X131164286Y-131363561D02*
X131164286Y-131896895D01*
X131507143Y-131363561D02*
X131507143Y-131782609D01*
X131507143Y-131782609D02*
X131469048Y-131858800D01*
X131469048Y-131858800D02*
X131392858Y-131896895D01*
X131392858Y-131896895D02*
X131278572Y-131896895D01*
X131278572Y-131896895D02*
X131202381Y-131858800D01*
X131202381Y-131858800D02*
X131164286Y-131820704D01*
X130783333Y-131896895D02*
X130783333Y-131096895D01*
X130783333Y-131401657D02*
X130707143Y-131363561D01*
X130707143Y-131363561D02*
X130554762Y-131363561D01*
X130554762Y-131363561D02*
X130478571Y-131401657D01*
X130478571Y-131401657D02*
X130440476Y-131439752D01*
X130440476Y-131439752D02*
X130402381Y-131515942D01*
X130402381Y-131515942D02*
X130402381Y-131744514D01*
X130402381Y-131744514D02*
X130440476Y-131820704D01*
X130440476Y-131820704D02*
X130478571Y-131858800D01*
X130478571Y-131858800D02*
X130554762Y-131896895D01*
X130554762Y-131896895D02*
X130707143Y-131896895D01*
X130707143Y-131896895D02*
X130783333Y-131858800D01*
X130059523Y-131820704D02*
X130021428Y-131858800D01*
X130021428Y-131858800D02*
X130059523Y-131896895D01*
X130059523Y-131896895D02*
X130097619Y-131858800D01*
X130097619Y-131858800D02*
X130059523Y-131820704D01*
X130059523Y-131820704D02*
X130059523Y-131896895D01*
X129335714Y-131858800D02*
X129411905Y-131896895D01*
X129411905Y-131896895D02*
X129564286Y-131896895D01*
X129564286Y-131896895D02*
X129640476Y-131858800D01*
X129640476Y-131858800D02*
X129678571Y-131820704D01*
X129678571Y-131820704D02*
X129716667Y-131744514D01*
X129716667Y-131744514D02*
X129716667Y-131515942D01*
X129716667Y-131515942D02*
X129678571Y-131439752D01*
X129678571Y-131439752D02*
X129640476Y-131401657D01*
X129640476Y-131401657D02*
X129564286Y-131363561D01*
X129564286Y-131363561D02*
X129411905Y-131363561D01*
X129411905Y-131363561D02*
X129335714Y-131401657D01*
X128878572Y-131896895D02*
X128954762Y-131858800D01*
X128954762Y-131858800D02*
X128992857Y-131820704D01*
X128992857Y-131820704D02*
X129030953Y-131744514D01*
X129030953Y-131744514D02*
X129030953Y-131515942D01*
X129030953Y-131515942D02*
X128992857Y-131439752D01*
X128992857Y-131439752D02*
X128954762Y-131401657D01*
X128954762Y-131401657D02*
X128878572Y-131363561D01*
X128878572Y-131363561D02*
X128764286Y-131363561D01*
X128764286Y-131363561D02*
X128688095Y-131401657D01*
X128688095Y-131401657D02*
X128650000Y-131439752D01*
X128650000Y-131439752D02*
X128611905Y-131515942D01*
X128611905Y-131515942D02*
X128611905Y-131744514D01*
X128611905Y-131744514D02*
X128650000Y-131820704D01*
X128650000Y-131820704D02*
X128688095Y-131858800D01*
X128688095Y-131858800D02*
X128764286Y-131896895D01*
X128764286Y-131896895D02*
X128878572Y-131896895D01*
X128269047Y-131896895D02*
X128269047Y-131363561D01*
X128269047Y-131439752D02*
X128230952Y-131401657D01*
X128230952Y-131401657D02*
X128154762Y-131363561D01*
X128154762Y-131363561D02*
X128040476Y-131363561D01*
X128040476Y-131363561D02*
X127964285Y-131401657D01*
X127964285Y-131401657D02*
X127926190Y-131477847D01*
X127926190Y-131477847D02*
X127926190Y-131896895D01*
X127926190Y-131477847D02*
X127888095Y-131401657D01*
X127888095Y-131401657D02*
X127811904Y-131363561D01*
X127811904Y-131363561D02*
X127697619Y-131363561D01*
X127697619Y-131363561D02*
X127621428Y-131401657D01*
X127621428Y-131401657D02*
X127583333Y-131477847D01*
X127583333Y-131477847D02*
X127583333Y-131896895D01*
X126630952Y-131058800D02*
X127316666Y-132087371D01*
X126097619Y-131477847D02*
X125983333Y-131515942D01*
X125983333Y-131515942D02*
X125945238Y-131554038D01*
X125945238Y-131554038D02*
X125907142Y-131630228D01*
X125907142Y-131630228D02*
X125907142Y-131744514D01*
X125907142Y-131744514D02*
X125945238Y-131820704D01*
X125945238Y-131820704D02*
X125983333Y-131858800D01*
X125983333Y-131858800D02*
X126059523Y-131896895D01*
X126059523Y-131896895D02*
X126364285Y-131896895D01*
X126364285Y-131896895D02*
X126364285Y-131096895D01*
X126364285Y-131096895D02*
X126097619Y-131096895D01*
X126097619Y-131096895D02*
X126021428Y-131134990D01*
X126021428Y-131134990D02*
X125983333Y-131173085D01*
X125983333Y-131173085D02*
X125945238Y-131249276D01*
X125945238Y-131249276D02*
X125945238Y-131325466D01*
X125945238Y-131325466D02*
X125983333Y-131401657D01*
X125983333Y-131401657D02*
X126021428Y-131439752D01*
X126021428Y-131439752D02*
X126097619Y-131477847D01*
X126097619Y-131477847D02*
X126364285Y-131477847D01*
X125450000Y-131896895D02*
X125526190Y-131858800D01*
X125526190Y-131858800D02*
X125564285Y-131820704D01*
X125564285Y-131820704D02*
X125602381Y-131744514D01*
X125602381Y-131744514D02*
X125602381Y-131515942D01*
X125602381Y-131515942D02*
X125564285Y-131439752D01*
X125564285Y-131439752D02*
X125526190Y-131401657D01*
X125526190Y-131401657D02*
X125450000Y-131363561D01*
X125450000Y-131363561D02*
X125335714Y-131363561D01*
X125335714Y-131363561D02*
X125259523Y-131401657D01*
X125259523Y-131401657D02*
X125221428Y-131439752D01*
X125221428Y-131439752D02*
X125183333Y-131515942D01*
X125183333Y-131515942D02*
X125183333Y-131744514D01*
X125183333Y-131744514D02*
X125221428Y-131820704D01*
X125221428Y-131820704D02*
X125259523Y-131858800D01*
X125259523Y-131858800D02*
X125335714Y-131896895D01*
X125335714Y-131896895D02*
X125450000Y-131896895D01*
X124497618Y-131858800D02*
X124573809Y-131896895D01*
X124573809Y-131896895D02*
X124726190Y-131896895D01*
X124726190Y-131896895D02*
X124802380Y-131858800D01*
X124802380Y-131858800D02*
X124840475Y-131820704D01*
X124840475Y-131820704D02*
X124878571Y-131744514D01*
X124878571Y-131744514D02*
X124878571Y-131515942D01*
X124878571Y-131515942D02*
X124840475Y-131439752D01*
X124840475Y-131439752D02*
X124802380Y-131401657D01*
X124802380Y-131401657D02*
X124726190Y-131363561D01*
X124726190Y-131363561D02*
X124573809Y-131363561D01*
X124573809Y-131363561D02*
X124497618Y-131401657D01*
X123811904Y-131363561D02*
X123811904Y-131896895D01*
X124154761Y-131363561D02*
X124154761Y-131782609D01*
X124154761Y-131782609D02*
X124116666Y-131858800D01*
X124116666Y-131858800D02*
X124040476Y-131896895D01*
X124040476Y-131896895D02*
X123926190Y-131896895D01*
X123926190Y-131896895D02*
X123849999Y-131858800D01*
X123849999Y-131858800D02*
X123811904Y-131820704D01*
X123430951Y-131896895D02*
X123430951Y-131363561D01*
X123430951Y-131439752D02*
X123392856Y-131401657D01*
X123392856Y-131401657D02*
X123316666Y-131363561D01*
X123316666Y-131363561D02*
X123202380Y-131363561D01*
X123202380Y-131363561D02*
X123126189Y-131401657D01*
X123126189Y-131401657D02*
X123088094Y-131477847D01*
X123088094Y-131477847D02*
X123088094Y-131896895D01*
X123088094Y-131477847D02*
X123049999Y-131401657D01*
X123049999Y-131401657D02*
X122973808Y-131363561D01*
X122973808Y-131363561D02*
X122859523Y-131363561D01*
X122859523Y-131363561D02*
X122783332Y-131401657D01*
X122783332Y-131401657D02*
X122745237Y-131477847D01*
X122745237Y-131477847D02*
X122745237Y-131896895D01*
X122021427Y-131896895D02*
X122021427Y-131477847D01*
X122021427Y-131477847D02*
X122059522Y-131401657D01*
X122059522Y-131401657D02*
X122135713Y-131363561D01*
X122135713Y-131363561D02*
X122288094Y-131363561D01*
X122288094Y-131363561D02*
X122364284Y-131401657D01*
X122021427Y-131858800D02*
X122097618Y-131896895D01*
X122097618Y-131896895D02*
X122288094Y-131896895D01*
X122288094Y-131896895D02*
X122364284Y-131858800D01*
X122364284Y-131858800D02*
X122402380Y-131782609D01*
X122402380Y-131782609D02*
X122402380Y-131706419D01*
X122402380Y-131706419D02*
X122364284Y-131630228D01*
X122364284Y-131630228D02*
X122288094Y-131592133D01*
X122288094Y-131592133D02*
X122097618Y-131592133D01*
X122097618Y-131592133D02*
X122021427Y-131554038D01*
X121716665Y-131096895D02*
X121183331Y-131096895D01*
X121183331Y-131096895D02*
X121526189Y-131896895D01*
X120535712Y-131363561D02*
X120535712Y-131896895D01*
X120726188Y-131058800D02*
X120916665Y-131630228D01*
X120916665Y-131630228D02*
X120421426Y-131630228D01*
X120192855Y-131096895D02*
X119659521Y-131096895D01*
X119659521Y-131096895D02*
X120002379Y-131896895D01*
X118783331Y-131058800D02*
X119469045Y-132087371D01*
X118516664Y-131896895D02*
X118516664Y-131096895D01*
X118059521Y-131896895D02*
X118402379Y-131439752D01*
X118059521Y-131096895D02*
X118516664Y-131554038D01*
X117411902Y-131858800D02*
X117488093Y-131896895D01*
X117488093Y-131896895D02*
X117640474Y-131896895D01*
X117640474Y-131896895D02*
X117716664Y-131858800D01*
X117716664Y-131858800D02*
X117754760Y-131782609D01*
X117754760Y-131782609D02*
X117754760Y-131477847D01*
X117754760Y-131477847D02*
X117716664Y-131401657D01*
X117716664Y-131401657D02*
X117640474Y-131363561D01*
X117640474Y-131363561D02*
X117488093Y-131363561D01*
X117488093Y-131363561D02*
X117411902Y-131401657D01*
X117411902Y-131401657D02*
X117373807Y-131477847D01*
X117373807Y-131477847D02*
X117373807Y-131554038D01*
X117373807Y-131554038D02*
X117754760Y-131630228D01*
X117030950Y-131896895D02*
X117030950Y-131363561D01*
X117030950Y-131096895D02*
X117069046Y-131134990D01*
X117069046Y-131134990D02*
X117030950Y-131173085D01*
X117030950Y-131173085D02*
X116992855Y-131134990D01*
X116992855Y-131134990D02*
X117030950Y-131096895D01*
X117030950Y-131096895D02*
X117030950Y-131173085D01*
X116764284Y-131363561D02*
X116459522Y-131363561D01*
X116649998Y-131096895D02*
X116649998Y-131782609D01*
X116649998Y-131782609D02*
X116611903Y-131858800D01*
X116611903Y-131858800D02*
X116535713Y-131896895D01*
X116535713Y-131896895D02*
X116459522Y-131896895D01*
X116192855Y-131896895D02*
X116192855Y-131096895D01*
X115849998Y-131896895D02*
X115849998Y-131477847D01*
X115849998Y-131477847D02*
X115888093Y-131401657D01*
X115888093Y-131401657D02*
X115964284Y-131363561D01*
X115964284Y-131363561D02*
X116078570Y-131363561D01*
X116078570Y-131363561D02*
X116154760Y-131401657D01*
X116154760Y-131401657D02*
X116192855Y-131439752D01*
X115354760Y-131896895D02*
X115430950Y-131858800D01*
X115430950Y-131858800D02*
X115469045Y-131782609D01*
X115469045Y-131782609D02*
X115469045Y-131096895D01*
X114745235Y-131858800D02*
X114821426Y-131896895D01*
X114821426Y-131896895D02*
X114973807Y-131896895D01*
X114973807Y-131896895D02*
X115049997Y-131858800D01*
X115049997Y-131858800D02*
X115088093Y-131782609D01*
X115088093Y-131782609D02*
X115088093Y-131477847D01*
X115088093Y-131477847D02*
X115049997Y-131401657D01*
X115049997Y-131401657D02*
X114973807Y-131363561D01*
X114973807Y-131363561D02*
X114821426Y-131363561D01*
X114821426Y-131363561D02*
X114745235Y-131401657D01*
X114745235Y-131401657D02*
X114707140Y-131477847D01*
X114707140Y-131477847D02*
X114707140Y-131554038D01*
X114707140Y-131554038D02*
X115088093Y-131630228D01*
X114440474Y-131363561D02*
X114249998Y-131896895D01*
X114059521Y-131363561D02*
X114249998Y-131896895D01*
X114249998Y-131896895D02*
X114326188Y-132087371D01*
X114326188Y-132087371D02*
X114364283Y-132125466D01*
X114364283Y-132125466D02*
X114440474Y-132163561D01*
X113945236Y-131973085D02*
X113335712Y-131973085D01*
X113259521Y-131096895D02*
X112802378Y-131096895D01*
X113030950Y-131896895D02*
X113030950Y-131096895D01*
X112269045Y-131477847D02*
X112535711Y-131477847D01*
X112535711Y-131896895D02*
X112535711Y-131096895D01*
X112535711Y-131096895D02*
X112154759Y-131096895D01*
X111926188Y-131096895D02*
X111392854Y-131096895D01*
X111392854Y-131096895D02*
X111735712Y-131896895D01*
X110935711Y-131096895D02*
X110859521Y-131096895D01*
X110859521Y-131096895D02*
X110783330Y-131134990D01*
X110783330Y-131134990D02*
X110745235Y-131173085D01*
X110745235Y-131173085D02*
X110707140Y-131249276D01*
X110707140Y-131249276D02*
X110669045Y-131401657D01*
X110669045Y-131401657D02*
X110669045Y-131592133D01*
X110669045Y-131592133D02*
X110707140Y-131744514D01*
X110707140Y-131744514D02*
X110745235Y-131820704D01*
X110745235Y-131820704D02*
X110783330Y-131858800D01*
X110783330Y-131858800D02*
X110859521Y-131896895D01*
X110859521Y-131896895D02*
X110935711Y-131896895D01*
X110935711Y-131896895D02*
X111011902Y-131858800D01*
X111011902Y-131858800D02*
X111049997Y-131820704D01*
X111049997Y-131820704D02*
X111088092Y-131744514D01*
X111088092Y-131744514D02*
X111126188Y-131592133D01*
X111126188Y-131592133D02*
X111126188Y-131401657D01*
X111126188Y-131401657D02*
X111088092Y-131249276D01*
X111088092Y-131249276D02*
X111049997Y-131173085D01*
X111049997Y-131173085D02*
X111011902Y-131134990D01*
X111011902Y-131134990D02*
X110935711Y-131096895D01*
D11*
X133333335Y-135704819D02*
X133904763Y-135704819D01*
X133619049Y-135704819D02*
X133619049Y-134704819D01*
X133619049Y-134704819D02*
X133714287Y-134847676D01*
X133714287Y-134847676D02*
X133809525Y-134942914D01*
X133809525Y-134942914D02*
X133904763Y-134990533D01*
X131428572Y-134800057D02*
X131380953Y-134752438D01*
X131380953Y-134752438D02*
X131285715Y-134704819D01*
X131285715Y-134704819D02*
X131047620Y-134704819D01*
X131047620Y-134704819D02*
X130952382Y-134752438D01*
X130952382Y-134752438D02*
X130904763Y-134800057D01*
X130904763Y-134800057D02*
X130857144Y-134895295D01*
X130857144Y-134895295D02*
X130857144Y-134990533D01*
X130857144Y-134990533D02*
X130904763Y-135133390D01*
X130904763Y-135133390D02*
X131476191Y-135704819D01*
X131476191Y-135704819D02*
X130857144Y-135704819D01*
X129000000Y-134704819D02*
X128380953Y-134704819D01*
X128380953Y-134704819D02*
X128714286Y-135085771D01*
X128714286Y-135085771D02*
X128571429Y-135085771D01*
X128571429Y-135085771D02*
X128476191Y-135133390D01*
X128476191Y-135133390D02*
X128428572Y-135181009D01*
X128428572Y-135181009D02*
X128380953Y-135276247D01*
X128380953Y-135276247D02*
X128380953Y-135514342D01*
X128380953Y-135514342D02*
X128428572Y-135609580D01*
X128428572Y-135609580D02*
X128476191Y-135657200D01*
X128476191Y-135657200D02*
X128571429Y-135704819D01*
X128571429Y-135704819D02*
X128857143Y-135704819D01*
X128857143Y-135704819D02*
X128952381Y-135657200D01*
X128952381Y-135657200D02*
X129000000Y-135609580D01*
X126000000Y-135038152D02*
X126000000Y-135704819D01*
X126238095Y-134657200D02*
X126476190Y-135371485D01*
X126476190Y-135371485D02*
X125857143Y-135371485D01*
X123476190Y-134704819D02*
X123952380Y-134704819D01*
X123952380Y-134704819D02*
X123999999Y-135181009D01*
X123999999Y-135181009D02*
X123952380Y-135133390D01*
X123952380Y-135133390D02*
X123857142Y-135085771D01*
X123857142Y-135085771D02*
X123619047Y-135085771D01*
X123619047Y-135085771D02*
X123523809Y-135133390D01*
X123523809Y-135133390D02*
X123476190Y-135181009D01*
X123476190Y-135181009D02*
X123428571Y-135276247D01*
X123428571Y-135276247D02*
X123428571Y-135514342D01*
X123428571Y-135514342D02*
X123476190Y-135609580D01*
X123476190Y-135609580D02*
X123523809Y-135657200D01*
X123523809Y-135657200D02*
X123619047Y-135704819D01*
X123619047Y-135704819D02*
X123857142Y-135704819D01*
X123857142Y-135704819D02*
X123952380Y-135657200D01*
X123952380Y-135657200D02*
X123999999Y-135609580D01*
X121047618Y-134704819D02*
X121238094Y-134704819D01*
X121238094Y-134704819D02*
X121333332Y-134752438D01*
X121333332Y-134752438D02*
X121380951Y-134800057D01*
X121380951Y-134800057D02*
X121476189Y-134942914D01*
X121476189Y-134942914D02*
X121523808Y-135133390D01*
X121523808Y-135133390D02*
X121523808Y-135514342D01*
X121523808Y-135514342D02*
X121476189Y-135609580D01*
X121476189Y-135609580D02*
X121428570Y-135657200D01*
X121428570Y-135657200D02*
X121333332Y-135704819D01*
X121333332Y-135704819D02*
X121142856Y-135704819D01*
X121142856Y-135704819D02*
X121047618Y-135657200D01*
X121047618Y-135657200D02*
X120999999Y-135609580D01*
X120999999Y-135609580D02*
X120952380Y-135514342D01*
X120952380Y-135514342D02*
X120952380Y-135276247D01*
X120952380Y-135276247D02*
X120999999Y-135181009D01*
X120999999Y-135181009D02*
X121047618Y-135133390D01*
X121047618Y-135133390D02*
X121142856Y-135085771D01*
X121142856Y-135085771D02*
X121333332Y-135085771D01*
X121333332Y-135085771D02*
X121428570Y-135133390D01*
X121428570Y-135133390D02*
X121476189Y-135181009D01*
X121476189Y-135181009D02*
X121523808Y-135276247D01*
X119095236Y-134704819D02*
X118428570Y-134704819D01*
X118428570Y-134704819D02*
X118857141Y-135704819D01*
X116380950Y-135133390D02*
X116476188Y-135085771D01*
X116476188Y-135085771D02*
X116523807Y-135038152D01*
X116523807Y-135038152D02*
X116571426Y-134942914D01*
X116571426Y-134942914D02*
X116571426Y-134895295D01*
X116571426Y-134895295D02*
X116523807Y-134800057D01*
X116523807Y-134800057D02*
X116476188Y-134752438D01*
X116476188Y-134752438D02*
X116380950Y-134704819D01*
X116380950Y-134704819D02*
X116190474Y-134704819D01*
X116190474Y-134704819D02*
X116095236Y-134752438D01*
X116095236Y-134752438D02*
X116047617Y-134800057D01*
X116047617Y-134800057D02*
X115999998Y-134895295D01*
X115999998Y-134895295D02*
X115999998Y-134942914D01*
X115999998Y-134942914D02*
X116047617Y-135038152D01*
X116047617Y-135038152D02*
X116095236Y-135085771D01*
X116095236Y-135085771D02*
X116190474Y-135133390D01*
X116190474Y-135133390D02*
X116380950Y-135133390D01*
X116380950Y-135133390D02*
X116476188Y-135181009D01*
X116476188Y-135181009D02*
X116523807Y-135228628D01*
X116523807Y-135228628D02*
X116571426Y-135323866D01*
X116571426Y-135323866D02*
X116571426Y-135514342D01*
X116571426Y-135514342D02*
X116523807Y-135609580D01*
X116523807Y-135609580D02*
X116476188Y-135657200D01*
X116476188Y-135657200D02*
X116380950Y-135704819D01*
X116380950Y-135704819D02*
X116190474Y-135704819D01*
X116190474Y-135704819D02*
X116095236Y-135657200D01*
X116095236Y-135657200D02*
X116047617Y-135609580D01*
X116047617Y-135609580D02*
X115999998Y-135514342D01*
X115999998Y-135514342D02*
X115999998Y-135323866D01*
X115999998Y-135323866D02*
X116047617Y-135228628D01*
X116047617Y-135228628D02*
X116095236Y-135181009D01*
X116095236Y-135181009D02*
X116190474Y-135133390D01*
X113999997Y-135704819D02*
X113809521Y-135704819D01*
X113809521Y-135704819D02*
X113714283Y-135657200D01*
X113714283Y-135657200D02*
X113666664Y-135609580D01*
X113666664Y-135609580D02*
X113571426Y-135466723D01*
X113571426Y-135466723D02*
X113523807Y-135276247D01*
X113523807Y-135276247D02*
X113523807Y-134895295D01*
X113523807Y-134895295D02*
X113571426Y-134800057D01*
X113571426Y-134800057D02*
X113619045Y-134752438D01*
X113619045Y-134752438D02*
X113714283Y-134704819D01*
X113714283Y-134704819D02*
X113904759Y-134704819D01*
X113904759Y-134704819D02*
X113999997Y-134752438D01*
X113999997Y-134752438D02*
X114047616Y-134800057D01*
X114047616Y-134800057D02*
X114095235Y-134895295D01*
X114095235Y-134895295D02*
X114095235Y-135133390D01*
X114095235Y-135133390D02*
X114047616Y-135228628D01*
X114047616Y-135228628D02*
X113999997Y-135276247D01*
X113999997Y-135276247D02*
X113904759Y-135323866D01*
X113904759Y-135323866D02*
X113714283Y-135323866D01*
X113714283Y-135323866D02*
X113619045Y-135276247D01*
X113619045Y-135276247D02*
X113571426Y-135228628D01*
X113571426Y-135228628D02*
X113523807Y-135133390D01*
X111047616Y-135704819D02*
X111619044Y-135704819D01*
X111333330Y-135704819D02*
X111333330Y-134704819D01*
X111333330Y-134704819D02*
X111428568Y-134847676D01*
X111428568Y-134847676D02*
X111523806Y-134942914D01*
X111523806Y-134942914D02*
X111619044Y-134990533D01*
X110428568Y-134704819D02*
X110333330Y-134704819D01*
X110333330Y-134704819D02*
X110238092Y-134752438D01*
X110238092Y-134752438D02*
X110190473Y-134800057D01*
X110190473Y-134800057D02*
X110142854Y-134895295D01*
X110142854Y-134895295D02*
X110095235Y-135085771D01*
X110095235Y-135085771D02*
X110095235Y-135323866D01*
X110095235Y-135323866D02*
X110142854Y-135514342D01*
X110142854Y-135514342D02*
X110190473Y-135609580D01*
X110190473Y-135609580D02*
X110238092Y-135657200D01*
X110238092Y-135657200D02*
X110333330Y-135704819D01*
X110333330Y-135704819D02*
X110428568Y-135704819D01*
X110428568Y-135704819D02*
X110523806Y-135657200D01*
X110523806Y-135657200D02*
X110571425Y-135609580D01*
X110571425Y-135609580D02*
X110619044Y-135514342D01*
X110619044Y-135514342D02*
X110666663Y-135323866D01*
X110666663Y-135323866D02*
X110666663Y-135085771D01*
X110666663Y-135085771D02*
X110619044Y-134895295D01*
X110619044Y-134895295D02*
X110571425Y-134800057D01*
X110571425Y-134800057D02*
X110523806Y-134752438D01*
X110523806Y-134752438D02*
X110428568Y-134704819D01*
M02*
