%TF.GenerationSoftware,KiCad,Pcbnew,7.0.5*%
%TF.CreationDate,2023-10-01T13:44:02-07:00*%
%TF.ProjectId,Keithley_TF70,4b656974-686c-4657-995f-544637302e6b,rev?*%
%TF.SameCoordinates,Original*%
%TF.FileFunction,Copper,L1,Top*%
%TF.FilePolarity,Positive*%
%FSLAX46Y46*%
G04 Gerber Fmt 4.6, Leading zero omitted, Abs format (unit mm)*
G04 Created by KiCad (PCBNEW 7.0.5) date 2023-10-01 13:44:02*
%MOMM*%
%LPD*%
G01*
G04 APERTURE LIST*
G04 Aperture macros list*
%AMRoundRect*
0 Rectangle with rounded corners*
0 $1 Rounding radius*
0 $2 $3 $4 $5 $6 $7 $8 $9 X,Y pos of 4 corners*
0 Add a 4 corners polygon primitive as box body*
4,1,4,$2,$3,$4,$5,$6,$7,$8,$9,$2,$3,0*
0 Add four circle primitives for the rounded corners*
1,1,$1+$1,$2,$3*
1,1,$1+$1,$4,$5*
1,1,$1+$1,$6,$7*
1,1,$1+$1,$8,$9*
0 Add four rect primitives between the rounded corners*
20,1,$1+$1,$2,$3,$4,$5,0*
20,1,$1+$1,$4,$5,$6,$7,0*
20,1,$1+$1,$6,$7,$8,$9,0*
20,1,$1+$1,$8,$9,$2,$3,0*%
G04 Aperture macros list end*
%TA.AperFunction,SMDPad,CuDef*%
%ADD10RoundRect,0.250000X0.350000X0.450000X-0.350000X0.450000X-0.350000X-0.450000X0.350000X-0.450000X0*%
%TD*%
%TA.AperFunction,SMDPad,CuDef*%
%ADD11RoundRect,0.250000X0.450000X-0.350000X0.450000X0.350000X-0.450000X0.350000X-0.450000X-0.350000X0*%
%TD*%
%TA.AperFunction,SMDPad,CuDef*%
%ADD12RoundRect,0.250000X-0.450000X0.350000X-0.450000X-0.350000X0.450000X-0.350000X0.450000X0.350000X0*%
%TD*%
%TA.AperFunction,ComponentPad*%
%ADD13R,1.700000X1.700000*%
%TD*%
%TA.AperFunction,ComponentPad*%
%ADD14O,1.700000X1.700000*%
%TD*%
%TA.AperFunction,Conductor*%
%ADD15C,1.000000*%
%TD*%
%TA.AperFunction,Conductor*%
%ADD16C,0.500000*%
%TD*%
G04 APERTURE END LIST*
D10*
%TO.P,R7,1*%
%TO.N,4*%
X127500000Y-134500000D03*
%TO.P,R7,2*%
%TO.N,5*%
X125500000Y-134500000D03*
%TD*%
D11*
%TO.P,R4,1*%
%TO.N,Net-(R4-Pad1)*%
X118000000Y-134500000D03*
%TO.P,R4,2*%
%TO.N,10*%
X118000000Y-132500000D03*
%TD*%
D12*
%TO.P,R3,1*%
%TO.N,10*%
X115750000Y-132500000D03*
%TO.P,R3,2*%
%TO.N,7*%
X115750000Y-134500000D03*
%TD*%
D13*
%TO.P,J1,1,Pin_1*%
%TO.N,1*%
X133750000Y-137500000D03*
D14*
%TO.P,J1,2,Pin_2*%
%TO.N,2*%
X131210000Y-137500000D03*
%TO.P,J1,3,Pin_3*%
%TO.N,unconnected-(J1-Pin_3-Pad3)*%
X128670000Y-137500000D03*
%TO.P,J1,4,Pin_4*%
%TO.N,4*%
X126130000Y-137500000D03*
%TO.P,J1,5,Pin_5*%
%TO.N,5*%
X123590000Y-137500000D03*
%TO.P,J1,6,Pin_6*%
%TO.N,6*%
X121050000Y-137500000D03*
%TO.P,J1,7,Pin_7*%
%TO.N,7*%
X118510000Y-137500000D03*
%TO.P,J1,8,Pin_8*%
%TO.N,8*%
X115970000Y-137500000D03*
%TO.P,J1,9,Pin_9*%
%TO.N,9*%
X113430000Y-137500000D03*
%TO.P,J1,10,Pin_10*%
%TO.N,10*%
X110890000Y-137500000D03*
%TD*%
D11*
%TO.P,R5,1*%
%TO.N,Net-(R4-Pad1)*%
X120250000Y-134500000D03*
%TO.P,R5,2*%
%TO.N,6*%
X120250000Y-132500000D03*
%TD*%
D12*
%TO.P,R1,1*%
%TO.N,10*%
X111250000Y-132500000D03*
%TO.P,R1,2*%
%TO.N,9*%
X111250000Y-134500000D03*
%TD*%
D10*
%TO.P,R8,1*%
%TO.N,1*%
X133500000Y-134500000D03*
%TO.P,R8,2*%
%TO.N,2*%
X131500000Y-134500000D03*
%TD*%
D11*
%TO.P,R6,1*%
%TO.N,5*%
X123250000Y-134500000D03*
%TO.P,R6,2*%
%TO.N,6*%
X123250000Y-132500000D03*
%TD*%
D12*
%TO.P,R2,1*%
%TO.N,10*%
X113500000Y-132500000D03*
%TO.P,R2,2*%
%TO.N,8*%
X113500000Y-134500000D03*
%TD*%
D15*
%TO.N,1*%
X133500000Y-136000000D02*
X133500000Y-134500000D01*
X133750000Y-136250000D02*
X133500000Y-136000000D01*
X133750000Y-137500000D02*
X133750000Y-136250000D01*
%TO.N,2*%
X131500000Y-137210000D02*
X131210000Y-137500000D01*
X131500000Y-134500000D02*
X131500000Y-137210000D01*
%TO.N,4*%
X127500000Y-136130000D02*
X127500000Y-134500000D01*
X126130000Y-137500000D02*
X127500000Y-136130000D01*
%TO.N,5*%
X125500000Y-134500000D02*
X123250000Y-134500000D01*
X123250000Y-137160000D02*
X123590000Y-137500000D01*
X123250000Y-134500000D02*
X123250000Y-137160000D01*
D16*
%TO.N,6*%
X121750000Y-132500000D02*
X121750000Y-136800000D01*
X121750000Y-136800000D02*
X121050000Y-137500000D01*
D15*
X120250000Y-132500000D02*
X121750000Y-132500000D01*
X123250000Y-132500000D02*
X121750000Y-132500000D01*
%TO.N,7*%
X115750000Y-134740000D02*
X118510000Y-137500000D01*
X115750000Y-134500000D02*
X115750000Y-134740000D01*
%TO.N,8*%
X113500000Y-135030000D02*
X115970000Y-137500000D01*
X113500000Y-134500000D02*
X113500000Y-135030000D01*
%TO.N,9*%
X111250000Y-135320000D02*
X113430000Y-137500000D01*
X111250000Y-134500000D02*
X111250000Y-135320000D01*
%TO.N,10*%
X110000000Y-137500000D02*
X110890000Y-137500000D01*
X110000000Y-132500000D02*
X109500000Y-133000000D01*
X111250000Y-132500000D02*
X110000000Y-132500000D01*
X118000000Y-132500000D02*
X115750000Y-132500000D01*
X111250000Y-132500000D02*
X113500000Y-132500000D01*
X109500000Y-133000000D02*
X109500000Y-137000000D01*
X109500000Y-137000000D02*
X110000000Y-137500000D01*
X113500000Y-132500000D02*
X115750000Y-132500000D01*
%TO.N,Net-(R4-Pad1)*%
X118000000Y-134500000D02*
X120250000Y-134500000D01*
%TD*%
M02*
